<svg width="24" height="24" viewBox="0 0 24 24" fill="none" xmlns="http://www.w3.org/2000/svg">
<rect width="24" height="24" rx="12" fill="white"/>
<path d="M15.7996 15.3993C15.7996 15.6202 15.6205 15.7993 15.3996 15.7993H15.0003C14.7794 15.7993 14.6003 15.6202 14.6003 15.3993V11.2123C14.6003 10.8559 14.1695 10.6774 13.9175 10.9294L9.40662 15.4403C9.25041 15.5965 8.99715 15.5965 8.84094 15.4403L8.55897 15.1583C8.40276 15.0021 8.40276 14.7489 8.55897 14.5926L13.0698 10.0818C13.3218 9.82978 13.1434 9.39893 12.787 9.39893H8.59995C8.37904 9.39893 8.19995 9.21984 8.19995 8.99893V8.59971C8.19995 8.37879 8.37904 8.19971 8.59995 8.19971H15.3996C15.6205 8.19971 15.7996 8.37879 15.7996 8.59971V15.3993Z" fill="#AC873E"/>
</svg>
