<svg width="24" height="24" viewBox="0 0 24 24" fill="none" xmlns="http://www.w3.org/2000/svg">
<rect x="-6.10352e-05" width="24" height="24" rx="12" fill="url(#paint0_linear_2010_1439)"/>
<path d="M15.8535 16.6604C15.8535 16.7708 15.7639 16.8604 15.6535 16.8604H14.654C14.5436 16.8604 14.454 16.7708 14.454 16.6604V11.0795C14.454 10.9013 14.2386 10.8121 14.1126 10.9381L8.40503 16.6457C8.32693 16.7238 8.20029 16.7238 8.12219 16.6457L7.4148 15.9383C7.33669 15.8602 7.33669 15.7336 7.4148 15.6555L13.1224 9.94787C13.2484 9.82187 13.1591 9.60645 12.981 9.60645H7.40013C7.28968 9.60645 7.20013 9.5169 7.20013 9.40645V8.40605C7.20013 8.2956 7.28968 8.20605 7.40013 8.20605H15.6535C15.7639 8.20605 15.8535 8.2956 15.8535 8.40605V16.6604Z" fill="white"/>
<defs>
<linearGradient id="paint0_linear_2010_1439" x1="25.7375" y1="-15.3913" x2="25.7375" y2="53.4783" gradientUnits="userSpaceOnUse">
<stop stop-color="#CDA658"/>
<stop offset="1" stop-color="#AA7D26"/>
</linearGradient>
</defs>
</svg>
