<svg width="18" height="18" viewBox="0 0 18 18" fill="none" xmlns="http://www.w3.org/2000/svg">
<path d="M15.9993 4.17135C13.5368 0.308466 8.50917 -0.83996 4.61021 1.5613C0.813858 3.96255 -0.417392 9.18267 2.04511 13.0456L2.25032 13.3588L1.42948 16.4908L4.50761 15.6556L4.81542 15.8644C6.14928 16.5952 7.58574 17.0128 9.0222 17.0128C10.5613 17.0128 12.1003 16.5952 13.4342 15.76C17.2305 13.2544 18.3592 8.13865 15.9993 4.17135ZM13.8446 12.2103C13.4342 12.8368 12.9212 13.2544 12.2029 13.3588C11.7925 13.3588 11.2795 13.5676 9.2274 12.7324C7.48313 11.8971 6.04667 10.5399 5.02063 8.97387C4.40501 8.24305 4.09719 7.30343 3.99459 6.36381C3.99459 5.52859 4.3024 4.79777 4.81542 4.27576C5.02063 4.06695 5.22584 3.96255 5.43105 3.96255H5.94407C6.14928 3.96255 6.35449 3.96255 6.45709 4.38016C6.6623 4.90217 7.17532 6.155 7.17532 6.2594C7.27792 6.36381 7.27792 6.57261 7.17532 6.67701C7.27792 6.88582 7.17532 7.09462 7.07272 7.19903C6.97011 7.30343 6.86751 7.51223 6.7649 7.61663C6.55969 7.72104 6.45709 7.92984 6.55969 8.13865C6.97011 8.76506 7.48313 9.39147 7.99615 9.91349C8.61178 10.4355 9.2274 10.8531 9.94563 11.1663C10.1508 11.2707 10.3561 11.2707 10.4587 11.0619C10.5613 10.8531 11.0743 10.3311 11.2795 10.1223C11.4847 9.91349 11.5873 9.91349 11.7925 10.0179L13.4342 10.8531C13.6394 10.9575 13.8446 11.0619 13.9472 11.1663C14.0498 11.4795 14.0498 11.8971 13.8446 12.2103Z" fill="white"/>
</svg>
